{"accessors":[{"name":"T_TRIM_3-Mesh_0_positions","componentType":5126,"count":211,"min":[-27.776275634765625,589.4640502929688,-48.165958404541016],"max":[25.635589599609375,594.5224609375,5.245894908905029],"type":"VEC3","bufferView":0,"byteOffset":0},{"name":"T_TRIM_3-Mesh_0_normals","componentType":5126,"count":211,"min":[-0.9064078330993652,-1,-0.9064078330993652],"max":[0.906313419342041,1,0.9063516855239868],"type":"VEC3","bufferView":1,"byteOffset":0},{"name":"T_TRIM_3-Mesh_0_texcoords","componentType":5126,"count":211,"min":[0.0010000000474974513,-0.9990010261535645],"max":[1.9990010261535645,0.9990010261535645],"type":"VEC2","bufferView":2,"byteOffset":0},{"name":"T_TRIM_3-Mesh_0_indices","componentType":5123,"count":300,"min":[0],"max":[210],"type":"SCALAR","bufferView":3,"byteOffset":0},{"name":"T_CROSS-Mesh_0_positions","componentType":5126,"count":591,"min":[-15.50030517578125,629.388916015625,-24.076332092285156],"max":[13.091796875,665.8433227539062,-18.119918823242188],"type":"VEC3","bufferView":0,"byteOffset":2532},{"name":"T_CROSS-Mesh_0_normals","componentType":5126,"count":591,"min":[-1,-1,-1],"max":[1,1,1],"type":"VEC3","bufferView":1,"byteOffset":2532},{"name":"T_CROSS-Mesh_0_texcoords","componentType":5126,"count":591,"min":[0.0004990000161342323,0.0004980000085197389],"max":[0.9995009899139404,0.9994980096817017],"type":"VEC2","bufferView":2,"byteOffset":1688},{"name":"T_CROSS-Mesh_0_indices","componentType":5123,"count":852,"min":[0],"max":[590],"type":"SCALAR","bufferView":3,"byteOffset":600},{"name":"T_HINGE-Mesh_0_positions","componentType":5126,"count":1472,"min":[-31.05908203125,3.1014719009399414,57.09507369995117],"max":[35.603271484375,62.21534729003906,57.8450813293457],"type":"VEC3","bufferView":0,"byteOffset":9624},{"name":"T_HINGE-Mesh_0_normals","componentType":5126,"count":1472,"min":[-0.9953038096427917,-0.9996874332427979,-1],"max":[0.9953038096427917,0.9996874332427979,1],"type":"VEC3","bufferView":1,"byteOffset":9624},{"name":"T_HINGE-Mesh_0_texcoords","componentType":5126,"count":1472,"min":[0.000999000039882958,-0.9990010261535645],"max":[1.9990010261535645,0.9990010261535645],"type":"VEC2","bufferView":2,"byteOffset":6416},{"name":"T_HINGE-Mesh_0_indices","componentType":5123,"count":2160,"min":[0],"max":[1471],"type":"SCALAR","bufferView":3,"byteOffset":2304},{"name":"T_TRIM_1-Mesh_0_positions","componentType":5126,"count":113,"min":[-98.339111328125,148.41375732421875,-118.28419494628906],"max":[96.20416259765625,158.25413513183594,76.25907897949219],"type":"VEC3","bufferView":0,"byteOffset":27288},{"name":"T_TRIM_1-Mesh_0_normals","componentType":5126,"count":113,"min":[-0.9064639210700989,-1,-0.906313419342041],"max":[0.906446099281311,1,0.906313419342041],"type":"VEC3","bufferView":1,"byteOffset":27288},{"name":"T_TRIM_1-Mesh_0_texcoords","componentType":5126,"count":113,"min":[0.000999000039882958,-0.9990010261535645],"max":[1.9990010261535645,0.9990010261535645],"type":"VEC2","bufferView":2,"byteOffset":18192},{"name":"T_TRIM_1-Mesh_0_indices","componentType":5123,"count":156,"min":[0],"max":[112],"type":"SCALAR","bufferView":3,"byteOffset":6624},{"name":"T_TOP-Mesh_0_positions","componentType":5126,"count":2218,"min":[-53.262176513671875,503.0736999511719,-73.27980041503906],"max":[51.16796875,631.4832153320312,31.153602600097656],"type":"VEC3","bufferView":0,"byteOffset":28644},{"name":"T_TOP-Mesh_0_normals","componentType":5126,"count":2218,"min":[-0.9999874830245972,-0.9992853403091431,-0.999985933303833],"max":[0.9999819993972778,1,0.9999837279319763],"type":"VEC3","bufferView":1,"byteOffset":28644},{"name":"T_TOP-Mesh_0_texcoords","componentType":5126,"count":2218,"min":[0.0005000000237487257,0.0004990000161342323],"max":[0.9994999766349792,0.9992219805717468],"type":"VEC2","bufferView":2,"byteOffset":19096},{"name":"T_TOP-Mesh_0_indices","componentType":5123,"count":5448,"min":[0],"max":[2217],"type":"SCALAR","bufferView":3,"byteOffset":6936},{"name":"T_BASE-Mesh_0_positions","componentType":5126,"count":28,"min":[-98.339111328125,-17.92757797241211,-118.2841796875],"max":[96.20416259765625,-12.927553176879883,76.25909423828125],"type":"VEC3","bufferView":0,"byteOffset":55260},{"name":"T_BASE-Mesh_0_normals","componentType":5126,"count":28,"min":[-0.906313419342041,-1,-0.906313419342041],"max":[0.906313419342041,1,0.906313419342041],"type":"VEC3","bufferView":1,"byteOffset":55260},{"name":"T_BASE-Mesh_0_texcoords","componentType":5126,"count":28,"min":[0.000999000039882958,-0.9990010261535645],"max":[1.9990010261535645,0.9990010261535645],"type":"VEC2","bufferView":2,"byteOffset":36840},{"name":"T_BASE-Mesh_0_indices","componentType":5123,"count":36,"min":[0],"max":[27],"type":"SCALAR","bufferView":3,"byteOffset":17832},{"name":"T_TRIM_2-Mesh_0_positions","componentType":5126,"count":130,"min":[-68.88470458984375,438.769775390625,-88.82981872558594],"max":[66.74972534179688,451.8312683105469,46.80461120605469],"type":"VEC3","bufferView":0,"byteOffset":55596},{"name":"T_TRIM_2-Mesh_0_normals","componentType":5126,"count":130,"min":[-1,-1,-1],"max":[1,1,1],"type":"VEC3","bufferView":1,"byteOffset":55596},{"name":"T_TRIM_2-Mesh_0_texcoords","componentType":5126,"count":130,"min":[0.000999000039882958,-0.9990010261535645],"max":[1.9990019798278809,0.9990010261535645],"type":"VEC2","bufferView":2,"byteOffset":37064},{"name":"T_TRIM_2-Mesh_0_indices","componentType":5123,"count":180,"min":[0],"max":[129],"type":"SCALAR","bufferView":3,"byteOffset":17904},{"name":"T_MID-Mesh_0_positions","componentType":5126,"count":494,"min":[-62.708038330078125,280.643310546875,-82.65316772460938],"max":[60.573089599609375,445.01483154296875,40.627986907958984],"type":"VEC3","bufferView":0,"byteOffset":57156},{"name":"T_MID-Mesh_0_normals","componentType":5126,"count":494,"min":[-1,-1,-1],"max":[1,1,1],"type":"VEC3","bufferView":1,"byteOffset":57156},{"name":"T_MID-Mesh_0_texcoords","componentType":5126,"count":494,"min":[0.0005000000237487257,-0.9990010261535645],"max":[0.9994999766349792,0.9990010261535645],"type":"VEC2","bufferView":2,"byteOffset":38104},{"name":"T_MID-Mesh_0_indices","componentType":5123,"count":672,"min":[0],"max":[493],"type":"SCALAR","bufferView":3,"byteOffset":18264},{"name":"T_ARCH-Mesh_0_positions","componentType":5126,"count":268,"min":[-39.191131591796875,-12.799225807189941,59.38634490966797],"max":[43.69659423828125,120.95963287353516,67.38636779785156],"type":"VEC3","bufferView":0,"byteOffset":63084},{"name":"T_ARCH-Mesh_0_normals","componentType":5126,"count":268,"min":[-1,-1,-1],"max":[1,0.9040125608444214,1],"type":"VEC3","bufferView":1,"byteOffset":63084},{"name":"T_ARCH-Mesh_0_texcoords","componentType":5126,"count":268,"min":[0.0004990000161342323,0.0004990000161342323],"max":[0.9995009899139404,0.9995009899139404],"type":"VEC2","bufferView":2,"byteOffset":42056},{"name":"T_ARCH-Mesh_0_indices","componentType":5123,"count":372,"min":[0],"max":[267],"type":"SCALAR","bufferView":3,"byteOffset":19608},{"name":"T_COLLS-Mesh_0_positions","componentType":5126,"count":2675,"min":[-50.387725830078125,451.9903564453125,-70.5167236328125],"max":[48.312469482421875,502.6727600097656,28.18347930908203],"type":"VEC3","bufferView":0,"byteOffset":66300},{"name":"T_COLLS-Mesh_0_normals","componentType":5126,"count":2675,"min":[-1,-1,-1],"max":[1,1,1],"type":"VEC3","bufferView":1,"byteOffset":66300},{"name":"T_COLLS-Mesh_0_texcoords","componentType":5126,"count":2675,"min":[-0.026982000097632408,0.0004990000161342323],"max":[0.9968889951705933,0.9994999766349792],"type":"VEC2","bufferView":2,"byteOffset":44200},{"name":"T_COLLS-Mesh_0_indices","componentType":5123,"count":8256,"min":[0],"max":[2674],"type":"SCALAR","bufferView":3,"byteOffset":20352},{"name":"T_LOW-Mesh_0_positions","componentType":5126,"count":1386,"min":[-81.59564208984375,-12.927577018737793,-101.54074096679688],"max":[79.460693359375,348.5507507324219,59.51561737060547],"type":"VEC3","bufferView":0,"byteOffset":98400},{"name":"T_LOW-Mesh_0_normals","componentType":5126,"count":1386,"min":[-1,-1,-1],"max":[1,1,1],"type":"VEC3","bufferView":1,"byteOffset":98400},{"name":"T_LOW-Mesh_0_texcoords","componentType":5126,"count":1386,"min":[0.0004990000161342323,-0.9990010261535645],"max":[0.9995009899139404,0.9990010261535645],"type":"VEC2","bufferView":2,"byteOffset":65600},{"name":"T_LOW-Mesh_0_indices","componentType":5123,"count":2004,"min":[0],"max":[1385],"type":"SCALAR","bufferView":3,"byteOffset":36864},{"name":"T_DOOR-Mesh_0_positions","componentType":5126,"count":120,"min":[-31.389923095703125,-12.251611709594727,55.17604064941406],"max":[36.15325927734375,111.76512908935547,57.176055908203125],"type":"VEC3","bufferView":0,"byteOffset":115032},{"name":"T_DOOR-Mesh_0_normals","componentType":5126,"count":120,"min":[-1,-1,-1],"max":[1,0.8884904384613037,1],"type":"VEC3","bufferView":1,"byteOffset":115032},{"name":"T_DOOR-Mesh_0_texcoords","componentType":5126,"count":120,"min":[0.0009980000322684646,0.0004990000161342323],"max":[1.9990019798278809,0.9995009899139404],"type":"VEC2","bufferView":2,"byteOffset":76688},{"name":"T_DOOR-Mesh_0_indices","componentType":5123,"count":168,"min":[0],"max":[119],"type":"SCALAR","bufferView":3,"byteOffset":40872}],"asset":{"generator":"obj2gltf","version":"2.0"},"buffers":[{"name":"castle-tower","byteLength":1377804,"uri":"data:application/octet-stream;base64,"}],"bufferViews":[{"name":"bufferView_0","buffer":0,"byteLength":116472,"byteOffset":0,"byteStride":12,"target":34962},{"name":"bufferView_1","buffer":0,"byteLength":116472,"byteOffset":116472,"byteStride":12,"target":34962},{"name":"bufferView_2","buffer":0,"byteLength":77648,"byteOffset":232944,"byteStride":8,"target":34962},{"name":"bufferView_3","buffer":0,"byteLength":41208,"byteOffset":310592,"target":34963},{"buffer":0,"byteOffset":351800,"byteLength":343440},{"buffer":0,"byteOffset":695240,"byteLength":54600},{"buffer":0,"byteOffset":749840,"byteLength":30843},{"buffer":0,"byteOffset":780683,"byteLength":93906},{"buffer":0,"byteOffset":874589,"byteLength":503212}],"images":[{"name":"STUCCO8","mimeType":"image/jpeg","bufferView":4},{"name":"PLATEOX2","mimeType":"image/jpeg","bufferView":5},{"name":"TUTSHNGL","mimeType":"image/jpeg","bufferView":6},{"name":"greek-wa","mimeType":"image/jpeg","bufferView":7},{"name":"DRIFTWD","mimeType":"image/jpeg","bufferView":8}],"materials":[{"name":"Concrete_Brown_S","pbrMetallicRoughness":{"baseColorTexture":{"index":0},"baseColorFactor":[1,1,1,1],"metallicFactor":0,"roughnessFactor":0.864219525846382},"normalTexture":{"index":0},"emissiveFactor":[0,0,0],"alphaMode":"OPAQUE","doubleSided":false},{"name":"Metal_PlateOX","pbrMetallicRoughness":{"baseColorTexture":{"index":1},"baseColorFactor":[1,1,1,1],"metallicFactor":0,"roughnessFactor":0.822745796417524},"normalTexture":{"index":1},"emissiveFactor":[0,0,0],"alphaMode":"OPAQUE","doubleSided":false},{"name":"Wood_Shingle","pbrMetallicRoughness":{"baseColorTexture":{"index":2},"baseColorFactor":[1,1,1,1],"metallicFactor":0,"roughnessFactor":0.859966574864237},"normalTexture":{"index":2},"emissiveFactor":[0,0,0],"alphaMode":"OPAQUE","doubleSided":false},{"name":"Material__4","pbrMetallicRoughness":{"baseColorTexture":{"index":3},"baseColorFactor":[1,1,1,1],"metallicFactor":0,"roughnessFactor":0.846141094466382},"normalTexture":{"index":3},"emissiveFactor":[0,0,0],"alphaMode":"OPAQUE","doubleSided":false},{"name":"Wood_Driftwood","pbrMetallicRoughness":{"baseColorTexture":{"index":4},"baseColorFactor":[1,1,1,1],"metallicFactor":0,"roughnessFactor":0.864219525846382},"normalTexture":{"index":4},"emissiveFactor":[0,0,0],"alphaMode":"OPAQUE","doubleSided":false}],"meshes":[{"name":"T_TRIM_3-Mesh","primitives":[{"attributes":{"POSITION":0,"NORMAL":1,"TEXCOORD_0":2},"indices":3,"material":0,"mode":4}]},{"name":"T_CROSS-Mesh","primitives":[{"attributes":{"POSITION":4,"NORMAL":5,"TEXCOORD_0":6},"indices":7,"material":1,"mode":4}]},{"name":"T_HINGE-Mesh","primitives":[{"attributes":{"POSITION":8,"NORMAL":9,"TEXCOORD_0":10},"indices":11,"material":1,"mode":4}]},{"name":"T_TRIM_1-Mesh","primitives":[{"attributes":{"POSITION":12,"NORMAL":13,"TEXCOORD_0":14},"indices":15,"material":0,"mode":4}]},{"name":"T_TOP-Mesh","primitives":[{"attributes":{"POSITION":16,"NORMAL":17,"TEXCOORD_0":18},"indices":19,"material":2,"mode":4}]},{"name":"T_BASE-Mesh","primitives":[{"attributes":{"POSITION":20,"NORMAL":21,"TEXCOORD_0":22},"indices":23,"material":0,"mode":4}]},{"name":"T_TRIM_2-Mesh","primitives":[{"attributes":{"POSITION":24,"NORMAL":25,"TEXCOORD_0":26},"indices":27,"material":0,"mode":4}]},{"name":"T_MID-Mesh","primitives":[{"attributes":{"POSITION":28,"NORMAL":29,"TEXCOORD_0":30},"indices":31,"material":3,"mode":4}]},{"name":"T_ARCH-Mesh","primitives":[{"attributes":{"POSITION":32,"NORMAL":33,"TEXCOORD_0":34},"indices":35,"material":0,"mode":4}]},{"name":"T_COLLS-Mesh","primitives":[{"attributes":{"POSITION":36,"NORMAL":37,"TEXCOORD_0":38},"indices":39,"material":0,"mode":4}]},{"name":"T_LOW-Mesh","primitives":[{"attributes":{"POSITION":40,"NORMAL":41,"TEXCOORD_0":42},"indices":43,"material":3,"mode":4}]},{"name":"T_DOOR-Mesh","primitives":[{"attributes":{"POSITION":44,"NORMAL":45,"TEXCOORD_0":46},"indices":47,"material":4,"mode":4}]}],"nodes":[{"name":"T_TRIM_3","mesh":0},{"name":"T_CROSS","mesh":1},{"name":"T_HINGE","mesh":2},{"name":"T_TRIM_1","mesh":3},{"name":"T_TOP","mesh":4},{"name":"T_BASE","mesh":5},{"name":"T_TRIM_2","mesh":6},{"name":"T_MID","mesh":7},{"name":"T_ARCH","mesh":8},{"name":"T_COLLS","mesh":9},{"name":"T_LOW","mesh":10},{"name":"T_DOOR","mesh":11}],"samplers":[{"wrapS":10497,"wrapT":10497}],"scene":0,"scenes":[{"nodes":[0,1,2,3,4,5,6,7,8,9,10,11]}],"textures":[{"name":"STUCCO8","sampler":0,"source":0},{"name":"PLATEOX2","sampler":0,"source":1},{"name":"TUTSHNGL","sampler":0,"source":2},{"name":"greek-wa","sampler":0,"source":3},{"name":"DRIFTWD","sampler":0,"source":4}]}